<?xml version="1.0" encoding="UTF-8"?>
<!DOCTYPE svg PUBLIC "-//W3C//DTD SVG 1.1//EN" "http://www.w3.org/Graphics/SVG/1.1/DTD/svg11.dtd">
<!-- Creator: CorelDRAW X7 -->
<svg xmlns="http://www.w3.org/2000/svg" xml:space="preserve" width="8.26389in" height="11.6806in" version="1.1" style="shape-rendering:geometricPrecision; text-rendering:geometricPrecision; image-rendering:optimizeQuality; fill-rule:evenodd; clip-rule:evenodd"
viewBox="0 0 8264 11681"
 xmlns:xlink="http://www.w3.org/1999/xlink">
 <defs>
  <style type="text/css">
   <![CDATA[
    .fil0 {fill:#201E1E}
    .fil1 {fill:#201E1E;fill-rule:nonzero}
   ]]>
  </style>
 </defs>
 <g id="Layer_x0020_1">
  <metadata id="CorelCorpID_0Corel-Layer"/>
  <path class="fil0" d="M2979 4991c123,45 179,70 293,129 32,17 60,37 95,51l-24 -27c-69,-63 -135,-95 -192,-142 688,69 984,82 1681,0l-217 169c38,-15 179,-98 289,-142 66,-27 260,-99 331,-95 27,-24 141,-24 184,-27 -29,-1 -76,-13 -113,-16 -46,-4 -88,0 -133,-2 13,-94 259,-43 248,-167 -47,-18 -177,-23 -204,18 -27,40 -9,38 -53,70 -21,15 -51,46 -67,54 -31,-26 -94,-106 -135,-142 -20,-17 -35,-25 -52,-43l-108 -82c-223,-128 -552,-130 -814,-130 -264,0 -709,1 -916,211 -35,36 -65,58 -98,91 -30,29 -61,77 -99,99 -23,-35 -22,-36 -57,-58 -48,-30 -24,-31 -51,-71 -24,-34 -160,-35 -204,-17 -8,55 60,83 111,96 64,16 124,11 138,72 -46,-2 -91,-3 -136,1 -34,4 -86,15 -112,16 133,8 299,36 415,84zm-18 -87c122,36 493,84 617,50 127,-35 8,-162 -28,-200 -47,-50 -157,-121 -46,-204 -107,-7 -269,60 -337,108 -54,38 -181,170 -206,246zm-371 291c14,2 21,16 43,37 98,95 307,187 437,212 -21,-74 -241,-248 -245,-256 -41,-19 -79,-51 -127,-75 -36,-18 -110,-47 -157,-50 6,76 28,80 49,132zm2777 -113c-88,19 -210,107 -260,150 -71,60 -149,135 -196,215 126,-52 163,-42 326,-132 74,-42 211,-141 203,-253l-73 20zm-1558 -100l153 8c-5,-127 -74,-185 -186,-232 -117,-49 -211,-65 -246,-160 0,-1 -1,-3 -2,-5 -56,66 82,126 146,172 65,47 130,103 135,217z"/>
  <path class="fil1" d="M2442 6496c10,-9 20,-18 31,-27 0,-169 0,-337 0,-505 0,-168 0,-337 0,-505 -11,-18 -21,-36 -31,-54 0,-35 0,-70 0,-106 136,107 270,191 408,244 101,40 181,69 237,105 55,35 95,74 120,120 25,45 39,97 43,156 4,58 6,123 6,194 0,67 -4,128 -11,182 -7,55 -18,105 -33,151 -15,45 -46,82 -93,111 -46,29 -116,45 -208,44 -157,-1 -313,-2 -469,-4 0,-36 0,-71 0,-106zm387 -19c18,1 33,0 45,-3 13,-3 24,-11 33,-22 9,-12 15,-28 19,-49 4,-21 6,-49 6,-85 0,-82 0,-165 0,-247 0,-83 0,-165 0,-248 0,-45 -5,-79 -14,-102 -9,-22 -32,-39 -68,-50 -21,-7 -41,-15 -61,-22 0,138 0,276 0,413 0,138 0,276 0,413 13,1 26,2 40,2zm938 56c0,25 0,50 0,75 -130,0 -260,0 -389,0 0,-26 0,-52 0,-77 10,-8 20,-15 30,-22 0,-125 0,-250 0,-375 0,-125 0,-249 0,-374 -10,-8 -20,-16 -30,-25 0,-25 0,-51 0,-77 129,11 259,18 389,22 0,25 0,50 0,75 -11,7 -21,14 -31,21 0,123 0,245 0,368 0,122 0,244 0,367 10,7 20,14 31,22zm901 75c-46,0 -92,0 -137,0 -9,-7 -18,-13 -25,-19 -8,-6 -15,-12 -23,-19 -41,22 -83,36 -126,43 -43,7 -83,10 -120,10 -54,0 -106,-7 -155,-20 -49,-14 -92,-39 -127,-77 -31,-32 -50,-73 -55,-122 -5,-41 -7,-86 -10,-136 -2,-49 -3,-100 -3,-151 1,-50 3,-101 7,-151 4,-49 9,-95 17,-138 10,-48 42,-87 96,-116 53,-30 127,-43 220,-40 41,2 82,6 122,11 40,6 74,17 103,34 7,-8 13,-16 19,-24 54,0 108,-2 163,-5 0,52 0,104 0,156 0,52 0,104 0,155 -83,3 -166,4 -248,3 0,-43 0,-86 0,-130 0,-20 -7,-35 -19,-47 -13,-11 -35,-17 -65,-17 -27,-1 -48,4 -65,15 -17,11 -25,32 -25,63 0,89 0,179 0,269 0,89 0,179 0,268 0,12 3,21 7,29 4,7 10,12 16,16 7,4 13,6 20,8 7,1 14,2 20,2 12,0 27,-3 46,-8 19,-6 34,-12 44,-21 0,-46 0,-93 0,-140 0,-46 0,-93 0,-139 -11,-7 -21,-13 -31,-20 0,-15 0,-31 0,-47 121,2 243,1 364,-4 0,15 0,30 0,44 -10,8 -20,16 -30,24 0,73 0,147 0,220 0,74 0,147 0,221zm589 -432c-10,-78 -19,-155 -28,-232 -9,-76 -19,-151 -28,-226 -18,7 -37,13 -55,19 -10,79 -20,158 -30,236 -9,77 -19,154 -29,231 57,-9 113,-18 170,-28zm-313 -433c-8,-6 -16,-11 -25,-17 0,-26 0,-52 0,-78 199,-59 398,-145 597,-259 0,33 0,66 0,99 -11,15 -21,30 -31,45 22,147 44,298 66,451 22,158 44,319 66,484 10,9 20,19 30,28 0,35 0,70 0,106 -129,1 -259,2 -388,3 0,-29 0,-58 0,-87 10,-8 20,-17 30,-27 -6,-55 -11,-110 -17,-165 -67,8 -134,15 -200,22 -9,52 -17,104 -25,155 10,7 20,15 31,22 0,27 0,54 0,82 -99,0 -196,0 -294,1 0,-26 0,-51 0,-76 10,-8 20,-15 30,-22 22,-125 44,-251 65,-378 22,-128 43,-258 65,-389z"/>
 </g>
</svg>
